<svg xmlns="http://www.w3.org/2000/svg" width="16" height="16"><defs><filter id="a" width="36.5" height="36.9" x="-10" y="-10" filterUnits="userSpaceOnUse"><feOffset dx=".5" dy=".9" in="SourceGraphic" result="FeOffset1102Out"/><feGaussianBlur in="FeOffset1102Out" result="FeGaussianBlur1103Out" stdDeviation="0 0"/></filter><mask id="b" width="2" height="2" x="-1" y="-1"><path fill="#fff" d="M0 0h16v16H0z"/><path d="M2 0h12a2 2 0 012 2v12a2 2 0 01-2 2H2a2 2 0 01-2-2V2a2 2 0 012-2zm-.06 8.958h1.017v6.074h2.258V8.958h1.596l.433-1.961H5.123s-.166-.815.15-1.12c.161-.157.452-.276.825-.276.38 0 .684.202 1.067.425L7.622 4.3c-.704-.198-1.153-.442-1.888-.442-.715 0-1.128.115-1.596.343-.468.229-.681.633-.856.996-.174.364-.261.806-.261 1.544v.257H1.973z"/></mask></defs><g filter="url(#a)"><path fill="none" d="M2 0h12a2 2 0 012 2v12a2 2 0 01-2 2H2a2 2 0 01-2-2V2a2 2 0 012-2zm-.06 8.958h1.017v6.074h2.258V8.958h1.596l.433-1.961H5.123s-.166-.815.15-1.12c.161-.157.452-.276.825-.276.38 0 .684.202 1.067.425L7.622 4.3c-.704-.198-1.153-.442-1.888-.442-.715 0-1.128.115-1.596.343-.468.229-.681.633-.856.996-.174.364-.261.806-.261 1.544v.257H1.973z" mask="url(&quot;#b&quot;)"/><path fill-opacity=".15" d="M2 0h12a2 2 0 012 2v12a2 2 0 01-2 2H2a2 2 0 01-2-2V2a2 2 0 012-2zm-.06 8.958h1.017v6.074h2.258V8.958h1.596l.433-1.961H5.123s-.166-.815.15-1.12c.161-.157.452-.276.825-.276.38 0 .684.202 1.067.425L7.622 4.3c-.704-.198-1.153-.442-1.888-.442-.715 0-1.128.115-1.596.343-.468.229-.681.633-.856.996-.174.364-.261.806-.261 1.544v.257H1.973z"/></g><path fill="#5f5f5f" d="M2 0h12a2 2 0 012 2v12a2 2 0 01-2 2H2a2 2 0 01-2-2V2a2 2 0 012-2zm-.06 8.958h1.017v6.074h2.258V8.958h1.596l.433-1.961H5.123s-.166-.815.15-1.12c.161-.157.452-.276.825-.276.38 0 .684.202 1.067.425L7.622 4.3c-.704-.198-1.153-.442-1.888-.442-.715 0-1.128.115-1.596.343-.468.229-.681.633-.856.996-.174.364-.261.806-.261 1.544v.257H1.973z"/></svg>