<svg xmlns="http://www.w3.org/2000/svg" width="15" height="11"><path fill="#00aeef" d="M9.72 3.412a4.487 4.487 0 011.947 1.606l1.302 3.334v1.635c0 .958-1.042 1-1.042 1H3.031c-1.083 0-1-1-1-1V8.279c.018.197 1.219-3.271 1.219-3.271.406-.793 1.205-1.277 2.013-1.573v-.521s-.044-.922.971-.922h2.5s1.016-.015 1.016 1zM2.03 8.279v-.01zm1.83-6.422c.105.255.425.81.425.81L.731 4.47.12 3.242S-.546 2.118.734 1.45l1.04-.56s2.149-.946 5.352-.946h.625c4.062 0 5.477.946 5.477.946l1.04.56c1.28.667.611 1.79.611 1.79l-.65 1.228-3.514-1.802s.255-.378.42-.78a.324.324 0 01.053-.1c-.009.004-.034.007-.077-.03C10.153.942 7.875.945 7.875.945h-.75c-1.563 0-3.219.703-3.219.703-.078.047-.158.002-.044.209z"/></svg>