<svg xmlns="http://www.w3.org/2000/svg" width="17" height="17"><defs><clipPath id="a"><path fill="#fff" d="M.165 16.835V.165h16.67v16.67zm15.49-1.604a1.13 1.13 0 000-1.596L12.9 10.88a6.445 6.445 0 10-2.037 2.03l2.76 2.76c.44.44 1.154.44 1.595 0l.438-.438zm-3.55-7.786a4.661 4.661 0 11-9.321 0 4.661 4.661 0 019.322 0z"/></clipPath></defs><path fill="#fff" d="M15.655 15.23l-.438.44a1.13 1.13 0 01-1.596 0l-2.76-2.76a6.445 6.445 0 112.037-2.03l2.757 2.755a1.13 1.13 0 010 1.596zM7.445 2.785a4.661 4.661 0 100 9.322 4.661 4.661 0 000-9.322z"/><path fill="none" stroke="#0087ba" stroke-linecap="round" stroke-linejoin="round" stroke-miterlimit="20" stroke-width="2" d="M15.655 15.23l-.438.44a1.13 1.13 0 01-1.596 0l-2.76-2.76a6.445 6.445 0 112.037-2.03l2.757 2.755a1.13 1.13 0 010 1.596zM7.445 2.785a4.661 4.661 0 100 9.322 4.661 4.661 0 000-9.322z" clip-path="url(&quot;#a&quot;)"/></svg>