<svg xmlns="http://www.w3.org/2000/svg" width="16" height="17"><path fill="#00aeef" d="M4.946 14.917c.568 0 1.028.43 1.028.997 0 .568-.46 1.028-1.028 1.028-.568 0-.997-.46-.997-1.028 0-.568.429-.997.997-.997zM1.644.294c1.238 0 2.13 1.608 2.13 1.608l.087 1.131 10.915-.015c1.087 0 1.231 1.159 1.231 1.159l-.005 5.612c0 1.162-1.239 1.186-1.239 1.186L4.59 10.922l.242 1.072h9.521c.855 0 .855 1.95 0 1.95H4.19c-.331 0-1.1-.894-1.1-1.6 0-.265-1.534-10.434-1.534-10.434l-1.575.002C-.02.786 1.644.294 1.644.294zm2.606 5.3l.225 2.883a.6.6 0 00.6.6l8.29-.062a.6.6 0 00.6-.6V5.53a.6.6 0 00-.6-.6l-8.515.063a.6.6 0 00-.6.6zm7.696 9.323c.568 0 1.028.43 1.028.997 0 .568-.46 1.028-1.028 1.028-.568 0-.997-.46-.997-1.028 0-.568.429-.997.997-.997z"/></svg>