<svg xmlns="http://www.w3.org/2000/svg" width="21" height="15"><defs><filter id="a" width="41.5" height="35.9" x="-10" y="-10" filterUnits="userSpaceOnUse"><feOffset dx=".5" dy=".9" in="SourceGraphic" result="FeOffset1062Out"/><feGaussianBlur in="FeOffset1062Out" result="FeGaussianBlur1063Out" stdDeviation="0 0"/></filter><mask id="b" width="2" height="2" x="-1" y="-1"><path fill="#fff" d="M0 0h21v15H0z"/><path d="M.969 10.942s2.638.931 3.734.931c0 0 1.465.592 2.47-.991 0 0 .338-.493-.12-.733 0 0-4.186-.492-3.867-1.27 0 0-.02-.438.558-.338 0 0 .807-1.568.488-1.768 0 0-.498-.438-.1-.478 0 0 1.173.159 1.552.258 0 0 .26-.093.02-.272-.24-.18-.638-.584-.558-.663 0 0 .14-.339.777-.06 0 0 .356-.384.176-.583 0 0-.538-.32-.279-.578 0 0 1.215-1.527 2.57.882 0 0 .338.458.378.02 0 0 1.657-4.716 3.83-5.095 0 0 .697.14.837-.08 0 0 .604-.239.803-.04 0 0 .2.3.439.12 0 0 .857-.339.598.22 0 0-.82.905-1.12.925-.299.02-.24.424.02.464 0 0 3.586.258 3.586 2.93 0 0 .21.634.887-.024 0 0 1.026-.653 1.285-.684 0 0 .28-.18.24.24 0 0-.738 1.276-1.495 1.635 0 0-.459.578.2.459 0 0 .639-.132.938-.312 0 0 .777-.379.419.3 0 0-1.637 1.061-1.996 1.061 0 0-.239.06-.239.28 0 0-.22 7.275-9.35 7.275 0 0-4.572-.005-7.562-3.513 0 0-.578-.618-.12-.518z"/></mask></defs><g filter="url(#a)"><path fill="none" d="M.969 10.942s2.638.931 3.734.931c0 0 1.465.592 2.47-.991 0 0 .338-.493-.12-.733 0 0-4.186-.492-3.867-1.27 0 0-.02-.438.558-.338 0 0 .807-1.568.488-1.768 0 0-.498-.438-.1-.478 0 0 1.173.159 1.552.258 0 0 .26-.093.02-.272-.24-.18-.638-.584-.558-.663 0 0 .14-.339.777-.06 0 0 .356-.384.176-.583 0 0-.538-.32-.279-.578 0 0 1.215-1.527 2.57.882 0 0 .338.458.378.02 0 0 1.657-4.716 3.83-5.095 0 0 .697.14.837-.08 0 0 .604-.239.803-.04 0 0 .2.3.439.12 0 0 .857-.339.598.22 0 0-.82.905-1.12.925-.299.02-.24.424.02.464 0 0 3.586.258 3.586 2.93 0 0 .21.634.887-.024 0 0 1.026-.653 1.285-.684 0 0 .28-.18.24.24 0 0-.738 1.276-1.495 1.635 0 0-.459.578.2.459 0 0 .639-.132.938-.312 0 0 .777-.379.419.3 0 0-1.637 1.061-1.996 1.061 0 0-.239.06-.239.28 0 0-.22 7.275-9.35 7.275 0 0-4.572-.005-7.562-3.513 0 0-.578-.618-.12-.518z" mask="url(&quot;#b&quot;)"/><path fill-opacity=".15" d="M.969 10.942s2.638.931 3.734.931c0 0 1.465.592 2.47-.991 0 0 .338-.493-.12-.733 0 0-4.186-.492-3.867-1.27 0 0-.02-.438.558-.338 0 0 .807-1.568.488-1.768 0 0-.498-.438-.1-.478 0 0 1.173.159 1.552.258 0 0 .26-.093.02-.272-.24-.18-.638-.584-.558-.663 0 0 .14-.339.777-.06 0 0 .356-.384.176-.583 0 0-.538-.32-.279-.578 0 0 1.215-1.527 2.57.882 0 0 .338.458.378.02 0 0 1.657-4.716 3.83-5.095 0 0 .697.14.837-.08 0 0 .604-.239.803-.04 0 0 .2.3.439.12 0 0 .857-.339.598.22 0 0-.82.905-1.12.925-.299.02-.24.424.02.464 0 0 3.586.258 3.586 2.93 0 0 .21.634.887-.024 0 0 1.026-.653 1.285-.684 0 0 .28-.18.24.24 0 0-.738 1.276-1.495 1.635 0 0-.459.578.2.459 0 0 .639-.132.938-.312 0 0 .777-.379.419.3 0 0-1.637 1.061-1.996 1.061 0 0-.239.06-.239.28 0 0-.22 7.275-9.35 7.275 0 0-4.572-.005-7.562-3.513 0 0-.578-.618-.12-.518z"/></g><path fill="#5f5f5f" d="M.969 10.942s2.638.931 3.734.931c0 0 1.465.592 2.47-.991 0 0 .338-.493-.12-.733 0 0-4.186-.492-3.867-1.27 0 0-.02-.438.558-.338 0 0 .807-1.568.488-1.768 0 0-.498-.438-.1-.478 0 0 1.173.159 1.552.258 0 0 .26-.093.02-.272-.24-.18-.638-.584-.558-.663 0 0 .14-.339.777-.06 0 0 .356-.384.176-.583 0 0-.538-.32-.279-.578 0 0 1.215-1.527 2.57.882 0 0 .338.458.378.02 0 0 1.657-4.716 3.83-5.095 0 0 .697.14.837-.08 0 0 .604-.239.803-.04 0 0 .2.3.439.12 0 0 .857-.339.598.22 0 0-.82.905-1.12.925-.299.02-.24.424.02.464 0 0 3.586.258 3.586 2.93 0 0 .21.634.887-.024 0 0 1.026-.653 1.285-.684 0 0 .28-.18.24.24 0 0-.738 1.276-1.495 1.635 0 0-.459.578.2.459 0 0 .639-.132.938-.312 0 0 .777-.379.419.3 0 0-1.637 1.061-1.996 1.061 0 0-.239.06-.239.28 0 0-.22 7.275-9.35 7.275 0 0-4.572-.005-7.562-3.513 0 0-.578-.618-.12-.518z"/></svg>