<svg xmlns="http://www.w3.org/2000/svg" width="15" height="15"><defs><filter id="a" width="35.5" height="35.9" x="-10" y="-10" filterUnits="userSpaceOnUse"><feOffset dx=".5" dy=".9" in="SourceGraphic" result="FeOffset1122Out"/><feGaussianBlur in="FeOffset1122Out" result="FeGaussianBlur1123Out" stdDeviation="0 0"/></filter><mask id="b" width="2" height="2" x="-1" y="-1"><path fill="#fff" d="M0 0h15v15H0z"/><path d="M2 0h11a2 2 0 012 2v11a2 2 0 01-2 2H2a2 2 0 01-2-2V2a2 2 0 012-2zm-.047 5.21c-.327.545.218.872.272 1.145.054.272.404-.502.704-.665.3-.164.463 0 .517.599.055.6 1.907 5.386 2.48 6.312.571.926 1.96 0 1.96 0s3.78-4.272 4.76-6.043c.98-1.77-.027-2.97-.463-3.296-.708-.817-1.49-.354-2.063.027-.3.109-1.443 1.761-1.906 2.306-.464.545.817.518 1.062.436.245-.082 1.035-.535.436.881-.6 1.417-1.623 2.566-1.896 2.947-.272.382-.708.055-.872-.844-.163-.9-1.07-5.535-1.397-5.753-.409-.736-1.42-.027-1.42-.027-.245.19-1.848 1.43-2.174 1.975z"/></mask></defs><g filter="url(#a)"><path fill="none" d="M2 0h11a2 2 0 012 2v11a2 2 0 01-2 2H2a2 2 0 01-2-2V2a2 2 0 012-2zm-.047 5.21c-.327.545.218.872.272 1.145.054.272.404-.502.704-.665.3-.164.463 0 .517.599.055.6 1.907 5.386 2.48 6.312.571.926 1.96 0 1.96 0s3.78-4.272 4.76-6.043c.98-1.77-.027-2.97-.463-3.296-.708-.817-1.49-.354-2.063.027-.3.109-1.443 1.761-1.906 2.306-.464.545.817.518 1.062.436.245-.082 1.035-.535.436.881-.6 1.417-1.623 2.566-1.896 2.947-.272.382-.708.055-.872-.844-.163-.9-1.07-5.535-1.397-5.753-.409-.736-1.42-.027-1.42-.027-.245.19-1.848 1.43-2.174 1.975z" mask="url(&quot;#b&quot;)"/><path fill-opacity=".15" d="M2 0h11a2 2 0 012 2v11a2 2 0 01-2 2H2a2 2 0 01-2-2V2a2 2 0 012-2zm-.047 5.21c-.327.545.218.872.272 1.145.054.272.404-.502.704-.665.3-.164.463 0 .517.599.055.6 1.907 5.386 2.48 6.312.571.926 1.96 0 1.96 0s3.78-4.272 4.76-6.043c.98-1.77-.027-2.97-.463-3.296-.708-.817-1.49-.354-2.063.027-.3.109-1.443 1.761-1.906 2.306-.464.545.817.518 1.062.436.245-.082 1.035-.535.436.881-.6 1.417-1.623 2.566-1.896 2.947-.272.382-.708.055-.872-.844-.163-.9-1.07-5.535-1.397-5.753-.409-.736-1.42-.027-1.42-.027-.245.19-1.848 1.43-2.174 1.975z"/></g><path fill="#5f5f5f" d="M2 0h11a2 2 0 012 2v11a2 2 0 01-2 2H2a2 2 0 01-2-2V2a2 2 0 012-2zm-.047 5.21c-.327.545.218.872.272 1.145.054.272.404-.502.704-.665.3-.164.463 0 .517.599.055.6 1.907 5.386 2.48 6.312.571.926 1.96 0 1.96 0s3.78-4.272 4.76-6.043c.98-1.77-.027-2.97-.463-3.296-.708-.817-1.49-.354-2.063.027-.3.109-1.443 1.761-1.906 2.306-.464.545.817.518 1.062.436.245-.082 1.035-.535.436.881-.6 1.417-1.623 2.566-1.896 2.947-.272.382-.708.055-.872-.844-.163-.9-1.07-5.535-1.397-5.753-.409-.736-1.42-.027-1.42-.027-.245.19-1.848 1.43-2.174 1.975z"/></svg>