<svg xmlns="http://www.w3.org/2000/svg" width="16" height="15"><defs><filter id="a" width="36.5" height="35.9" x="-10" y="-10" filterUnits="userSpaceOnUse"><feOffset dx=".5" dy=".9" in="SourceGraphic" result="FeOffset1082Out"/><feGaussianBlur in="FeOffset1082Out" result="FeGaussianBlur1083Out" stdDeviation="0 0"/></filter><mask id="b" width="2" height="2" x="-1" y="-1"><path fill="#fff" d="M0 0h16v15H0z"/><path d="M1.875 7H14c.772 0 2 .853 2 2.031L15.969 13c0 .897-.604 1.969-2 1.969H1.906C.478 14.969 0 13.772 0 12.999V9.032C0 8.103.322 7 1.875 7zm-.828.96v1.11h.972v5.058h1.27V9.069h.656v3.371c0 .446.01.743.028.893.018.15.064.294.138.431.074.139.19.25.346.333.156.083.103.124.34.124.208 0 .392-.043.553-.13.16-.088.513-.22.623-.394l-.028.43H7.27V8.945H5.973v3.488c0 .425-.012.676-.034.754-.022.079-.31.118-.427.118-.11 0-.177-.038-.202-.114a2.263 2.263 0 01-.1-.719V8.944h-.57V7.96zm2.898 1.11v-.126h.695v.125zm4.016-1.173v6.23h1.101l.102-.39c.133.161.404.282.564.363.16.081.146.121.33.121.258 0 .575-.068.762-.205a.89.89 0 00.358-.484c.05-.186.076-.47.076-.85v-2.335c0-.383-.009-.633-.026-.75a.864.864 0 00-.15-.36.809.809 0 00-.363-.285c-.16-.068-.44-.102-.656-.102-.188 0-.174.037-.334.112-.16.074-.43.187-.561.339V7.897zM9.926 12.6c0 .308-.015.502-.045.583-.03.08-.095.12-.194.12-.096 0-.442-.038-.474-.117-.033-.078-.05-.256-.05-.535v-2.234c0-.29.015-.47.044-.541.029-.072.216-.108.312-.108.1 0 .322.041.356.124.034.082.05.257.05.525zm5.234-1.722c0-.503-.058-.893-.174-1.17a1.386 1.386 0 00-.605-.668c-.288-.168-.122-.252-.565-.252-.362 0-.682.07-.96.209-.28.14-.605.34-.727.601-.123.262-.184.62-.184 1.073v1.511c0 .386.028.68.082.881.055.202.153.387.295.555.142.168.466.3.72.396.256.097.55.145.884.145.344 0 .098-.049.326-.147a1.37 1.37 0 00.564-.439c.149-.195.243-.379.284-.55.04-.173.06-.169.06-.49v-.382h-1.152v.684c0 .257-.02.181-.06.271-.041.09-.121.135-.241.135-.096 0-.287-.034-.32-.101-.034-.068-.051-.22-.051-.454V11.44h1.824zm-1.793 0v-.38c0-.29.013-.47.04-.536.025-.067.218-.1.327-.1.089 0 .147.04.176.117.029.078.043.252.043.52v.379zM5.926-.04L4.414 3.839V5.97H3.109V3.84L1.953-.041h1.073c.236 1.235.807 1.91.837 2.337.091-.675.713-1.35.927-2.336zm3.21 2.804v1.27c0 .466-.023.808-.07 1.025a1.44 1.44 0 01-.3.61c-.154.188-.351.172-.592.261-.241.09-.487.041-.487.041s-.488.056-.73-.021a1.208 1.208 0 01-.565-.348c-.134-.155-.23-.186-.287-.406-.057-.22-.086-.55-.086-.99V2.878c0-.482.053-.858.157-1.13.104-.27.291-.425.562-.589.271-.164.399-.215.82-.215.355 0 .377.022.631.127.254.105.45.18.588.35.138.169.233.343.283.523.051.18.077.453.077.82zm-1.234-.39c0-.266-.014-.433-.043-.502-.028-.07-.277-.104-.37-.104-.095 0-.282.035-.313.104-.032.069-.047.236-.047.502v2.183c0 .245.015.405.047.479.031.074.217.111.308.111.094 0 .343-.034.373-.101.03-.068.045-.214.045-.438zm5.149-1.367v5.027h-.95l.028-.43c-.11.174-.9.243-1.06.33-.16.088-.501.1-.71.1-.237 0 .442-.042.285-.125a.813.813 0 01-.345-.332c-.074-.138-.12-.094-.139-.244a9.153 9.153 0 01-.027-.893V1.007h.828V4.47c0 .404.012.644.037.72.025.075.092.113.201.113.117 0 .874-.04.897-.118.022-.078.033-.33.033-.754V1.007z"/></mask></defs><g filter="url(#a)"><path fill="none" d="M1.875 7H14c.772 0 2 .853 2 2.031L15.969 13c0 .897-.604 1.969-2 1.969H1.906C.478 14.969 0 13.772 0 12.999V9.032C0 8.103.322 7 1.875 7zm-.828.96v1.11h.972v5.058h1.27V9.069h.656v3.371c0 .446.01.743.028.893.018.15.064.294.138.431.074.139.19.25.346.333.156.083.103.124.34.124.208 0 .392-.043.553-.13.16-.088.513-.22.623-.394l-.028.43H7.27V8.945H5.973v3.488c0 .425-.012.676-.034.754-.022.079-.31.118-.427.118-.11 0-.177-.038-.202-.114a2.263 2.263 0 01-.1-.719V8.944h-.57V7.96zm2.898 1.11v-.126h.695v.125zm4.016-1.173v6.23h1.101l.102-.39c.133.161.404.282.564.363.16.081.146.121.33.121.258 0 .575-.068.762-.205a.89.89 0 00.358-.484c.05-.186.076-.47.076-.85v-2.335c0-.383-.009-.633-.026-.75a.864.864 0 00-.15-.36.809.809 0 00-.363-.285c-.16-.068-.44-.102-.656-.102-.188 0-.174.037-.334.112-.16.074-.43.187-.561.339V7.897zM9.926 12.6c0 .308-.015.502-.045.583-.03.08-.095.12-.194.12-.096 0-.442-.038-.474-.117-.033-.078-.05-.256-.05-.535v-2.234c0-.29.015-.47.044-.541.029-.072.216-.108.312-.108.1 0 .322.041.356.124.034.082.05.257.05.525zm5.234-1.722c0-.503-.058-.893-.174-1.17a1.386 1.386 0 00-.605-.668c-.288-.168-.122-.252-.565-.252-.362 0-.682.07-.96.209-.28.14-.605.34-.727.601-.123.262-.184.62-.184 1.073v1.511c0 .386.028.68.082.881.055.202.153.387.295.555.142.168.466.3.72.396.256.097.55.145.884.145.344 0 .098-.049.326-.147a1.37 1.37 0 00.564-.439c.149-.195.243-.379.284-.55.04-.173.06-.169.06-.49v-.382h-1.152v.684c0 .257-.02.181-.06.271-.041.09-.121.135-.241.135-.096 0-.287-.034-.32-.101-.034-.068-.051-.22-.051-.454V11.44h1.824zm-1.793 0v-.38c0-.29.013-.47.04-.536.025-.067.218-.1.327-.1.089 0 .147.04.176.117.029.078.043.252.043.52v.379zM5.926-.04L4.414 3.839V5.97H3.109V3.84L1.953-.041h1.073c.236 1.235.807 1.91.837 2.337.091-.675.713-1.35.927-2.336zm3.21 2.804v1.27c0 .466-.023.808-.07 1.025a1.44 1.44 0 01-.3.61c-.154.188-.351.172-.592.261-.241.09-.487.041-.487.041s-.488.056-.73-.021a1.208 1.208 0 01-.565-.348c-.134-.155-.23-.186-.287-.406-.057-.22-.086-.55-.086-.99V2.878c0-.482.053-.858.157-1.13.104-.27.291-.425.562-.589.271-.164.399-.215.82-.215.355 0 .377.022.631.127.254.105.45.18.588.35.138.169.233.343.283.523.051.18.077.453.077.82zm-1.234-.39c0-.266-.014-.433-.043-.502-.028-.07-.277-.104-.37-.104-.095 0-.282.035-.313.104-.032.069-.047.236-.047.502v2.183c0 .245.015.405.047.479.031.074.217.111.308.111.094 0 .343-.034.373-.101.03-.068.045-.214.045-.438zm5.149-1.367v5.027h-.95l.028-.43c-.11.174-.9.243-1.06.33-.16.088-.501.1-.71.1-.237 0 .442-.042.285-.125a.813.813 0 01-.345-.332c-.074-.138-.12-.094-.139-.244a9.153 9.153 0 01-.027-.893V1.007h.828V4.47c0 .404.012.644.037.72.025.075.092.113.201.113.117 0 .874-.04.897-.118.022-.078.033-.33.033-.754V1.007z" mask="url(&quot;#b&quot;)"/><path fill-opacity=".15" d="M1.875 7H14c.772 0 2 .853 2 2.031L15.969 13c0 .897-.604 1.969-2 1.969H1.906C.478 14.969 0 13.772 0 12.999V9.032C0 8.103.322 7 1.875 7zm-.828.96v1.11h.972v5.058h1.27V9.069h.656v3.371c0 .446.01.743.028.893.018.15.064.294.138.431.074.139.19.25.346.333.156.083.103.124.34.124.208 0 .392-.043.553-.13.16-.088.513-.22.623-.394l-.028.43H7.27V8.945H5.973v3.488c0 .425-.012.676-.034.754-.022.079-.31.118-.427.118-.11 0-.177-.038-.202-.114a2.263 2.263 0 01-.1-.719V8.944h-.57V7.96zm2.898 1.11v-.126h.695v.125zm4.016-1.173v6.23h1.101l.102-.39c.133.161.404.282.564.363.16.081.146.121.33.121.258 0 .575-.068.762-.205a.89.89 0 00.358-.484c.05-.186.076-.47.076-.85v-2.335c0-.383-.009-.633-.026-.75a.864.864 0 00-.15-.36.809.809 0 00-.363-.285c-.16-.068-.44-.102-.656-.102-.188 0-.174.037-.334.112-.16.074-.43.187-.561.339V7.897zM9.926 12.6c0 .308-.015.502-.045.583-.03.08-.095.12-.194.12-.096 0-.442-.038-.474-.117-.033-.078-.05-.256-.05-.535v-2.234c0-.29.015-.47.044-.541.029-.072.216-.108.312-.108.1 0 .322.041.356.124.034.082.05.257.05.525zm5.234-1.722c0-.503-.058-.893-.174-1.17a1.386 1.386 0 00-.605-.668c-.288-.168-.122-.252-.565-.252-.362 0-.682.07-.96.209-.28.14-.605.34-.727.601-.123.262-.184.62-.184 1.073v1.511c0 .386.028.68.082.881.055.202.153.387.295.555.142.168.466.3.72.396.256.097.55.145.884.145.344 0 .098-.049.326-.147a1.37 1.37 0 00.564-.439c.149-.195.243-.379.284-.55.04-.173.06-.169.06-.49v-.382h-1.152v.684c0 .257-.02.181-.06.271-.041.09-.121.135-.241.135-.096 0-.287-.034-.32-.101-.034-.068-.051-.22-.051-.454V11.44h1.824zm-1.793 0v-.38c0-.29.013-.47.04-.536.025-.067.218-.1.327-.1.089 0 .147.04.176.117.029.078.043.252.043.52v.379zM5.926-.04L4.414 3.839V5.97H3.109V3.84L1.953-.041h1.073c.236 1.235.807 1.91.837 2.337.091-.675.713-1.35.927-2.336zm3.21 2.804v1.27c0 .466-.023.808-.07 1.025a1.44 1.44 0 01-.3.61c-.154.188-.351.172-.592.261-.241.09-.487.041-.487.041s-.488.056-.73-.021a1.208 1.208 0 01-.565-.348c-.134-.155-.23-.186-.287-.406-.057-.22-.086-.55-.086-.99V2.878c0-.482.053-.858.157-1.13.104-.27.291-.425.562-.589.271-.164.399-.215.82-.215.355 0 .377.022.631.127.254.105.45.18.588.35.138.169.233.343.283.523.051.18.077.453.077.82zm-1.234-.39c0-.266-.014-.433-.043-.502-.028-.07-.277-.104-.37-.104-.095 0-.282.035-.313.104-.032.069-.047.236-.047.502v2.183c0 .245.015.405.047.479.031.074.217.111.308.111.094 0 .343-.034.373-.101.03-.068.045-.214.045-.438zm5.149-1.367v5.027h-.95l.028-.43c-.11.174-.9.243-1.06.33-.16.088-.501.1-.71.1-.237 0 .442-.042.285-.125a.813.813 0 01-.345-.332c-.074-.138-.12-.094-.139-.244a9.153 9.153 0 01-.027-.893V1.007h.828V4.47c0 .404.012.644.037.72.025.075.092.113.201.113.117 0 .874-.04.897-.118.022-.078.033-.33.033-.754V1.007z"/></g><path fill="#5f5f5f" d="M1.875 7H14c.772 0 2 .853 2 2.031L15.969 13c0 .897-.604 1.969-2 1.969H1.906C.478 14.969 0 13.772 0 12.999V9.032C0 8.103.322 7 1.875 7zm-.828.96v1.11h.972v5.058h1.27V9.069h.656v3.371c0 .446.01.743.028.893.018.15.064.294.138.431.074.139.19.25.346.333.156.083.103.124.34.124.208 0 .392-.043.553-.13.16-.088.513-.22.623-.394l-.028.43H7.27V8.945H5.973v3.488c0 .425-.012.676-.034.754-.022.079-.31.118-.427.118-.11 0-.177-.038-.202-.114a2.263 2.263 0 01-.1-.719V8.944h-.57V7.96zm2.898 1.11v-.126h.695v.125zm4.016-1.173v6.23h1.101l.102-.39c.133.161.404.282.564.363.16.081.146.121.33.121.258 0 .575-.068.762-.205a.89.89 0 00.358-.484c.05-.186.076-.47.076-.85v-2.335c0-.383-.009-.633-.026-.75a.864.864 0 00-.15-.36.809.809 0 00-.363-.285c-.16-.068-.44-.102-.656-.102-.188 0-.174.037-.334.112-.16.074-.43.187-.561.339V7.897zM9.926 12.6c0 .308-.015.502-.045.583-.03.08-.095.12-.194.12-.096 0-.442-.038-.474-.117-.033-.078-.05-.256-.05-.535v-2.234c0-.29.015-.47.044-.541.029-.072.216-.108.312-.108.1 0 .322.041.356.124.034.082.05.257.05.525zm5.234-1.722c0-.503-.058-.893-.174-1.17a1.386 1.386 0 00-.605-.668c-.288-.168-.122-.252-.565-.252-.362 0-.682.07-.96.209-.28.14-.605.34-.727.601-.123.262-.184.62-.184 1.073v1.511c0 .386.028.68.082.881.055.202.153.387.295.555.142.168.466.3.72.396.256.097.55.145.884.145.344 0 .098-.049.326-.147a1.37 1.37 0 00.564-.439c.149-.195.243-.379.284-.55.04-.173.06-.169.06-.49v-.382h-1.152v.684c0 .257-.02.181-.06.271-.041.09-.121.135-.241.135-.096 0-.287-.034-.32-.101-.034-.068-.051-.22-.051-.454V11.44h1.824zm-1.793 0v-.38c0-.29.013-.47.04-.536.025-.067.218-.1.327-.1.089 0 .147.04.176.117.029.078.043.252.043.52v.379zM5.926-.04L4.414 3.839V5.97H3.109V3.84L1.953-.041h1.073c.236 1.235.807 1.91.837 2.337.091-.675.713-1.35.927-2.336zm3.21 2.804v1.27c0 .466-.023.808-.07 1.025a1.44 1.44 0 01-.3.61c-.154.188-.351.172-.592.261-.241.09-.487.041-.487.041s-.488.056-.73-.021a1.208 1.208 0 01-.565-.348c-.134-.155-.23-.186-.287-.406-.057-.22-.086-.55-.086-.99V2.878c0-.482.053-.858.157-1.13.104-.27.291-.425.562-.589.271-.164.399-.215.82-.215.355 0 .377.022.631.127.254.105.45.18.588.35.138.169.233.343.283.523.051.18.077.453.077.82zm-1.234-.39c0-.266-.014-.433-.043-.502-.028-.07-.277-.104-.37-.104-.095 0-.282.035-.313.104-.032.069-.047.236-.047.502v2.183c0 .245.015.405.047.479.031.074.217.111.308.111.094 0 .343-.034.373-.101.03-.068.045-.214.045-.438zm5.149-1.367v5.027h-.95l.028-.43c-.11.174-.9.243-1.06.33-.16.088-.501.1-.71.1-.237 0 .442-.042.285-.125a.813.813 0 01-.345-.332c-.074-.138-.12-.094-.139-.244a9.153 9.153 0 01-.027-.893V1.007h.828V4.47c0 .404.012.644.037.72.025.075.092.113.201.113.117 0 .874-.04.897-.118.022-.078.033-.33.033-.754V1.007z"/></svg>